<svg width="39" height="22" viewBox="0 0 39 22" fill="none" xmlns="http://www.w3.org/2000/svg">
<g clip-path="url(#clip0_1_439)">
<path opacity="0.07" d="M35.5371 0.986328H3.53711C1.83711 0.986328 0.537109 2.28633 0.537109 3.98633V21.9863C0.537109 23.6863 1.93711 24.9863 3.53711 24.9863H35.5371C37.2371 24.9863 38.5371 23.6863 38.5371 21.9863V3.98633C38.5371 2.28633 37.1371 0.986328 35.5371 0.986328Z" fill="#00333E"/>
<path d="M35.5371 1.98633C36.6371 1.98633 37.5371 2.88633 37.5371 3.98633V21.9863C37.5371 23.0863 36.6371 23.9863 35.5371 23.9863H3.53711C2.43711 23.9863 1.53711 23.0863 1.53711 21.9863V3.98633C1.53711 2.88633 2.43711 1.98633 3.53711 1.98633H35.5371Z" fill="white"/>
<path d="M25.7974 17.2163C24.1004 18.6963 21.6404 19.4863 19.5224 19.4863C16.5524 19.4863 13.8784 18.1863 11.8564 16.0233C11.6964 15.8533 11.8384 15.6213 12.0294 15.7533C14.2124 17.2573 16.9114 18.1613 19.6994 18.1613C21.5794 18.1613 23.6494 17.7013 25.5494 16.7453C25.8374 16.6003 26.0794 16.9673 25.7974 17.2153V17.2163ZM26.5034 16.2593C26.2874 15.9313 25.0694 16.1043 24.5234 16.1813C24.3564 16.2053 24.3304 16.0333 24.4804 15.9113C25.4504 15.1013 27.0424 15.3353 27.2284 15.6063C27.4154 15.8783 27.1814 17.7663 26.2684 18.6693C26.1284 18.8073 25.9964 18.7333 26.0584 18.5493C26.2634 17.9453 26.7224 16.5893 26.5044 16.2593H26.5034Z" fill="#FF9900"/>
<path d="M22.3511 16.2772C21.7771 15.7792 21.6751 15.5472 21.3581 15.0722C20.4111 16.0842 19.7401 16.3872 18.5081 16.3872C17.0551 16.3872 15.9211 15.4492 15.9211 13.5692C15.9211 12.1022 16.6831 11.1022 17.7651 10.6142C18.7051 10.1812 20.0151 10.1042 21.0151 9.98622V9.75122C21.0151 9.32122 21.0481 8.81122 20.8071 8.44122C20.5951 8.10822 20.1911 7.97122 19.8371 7.97122C19.1771 7.97122 18.5871 8.32422 18.4451 9.05622C18.4151 9.21922 18.3011 9.37922 18.1451 9.38622L16.4681 9.19922C16.3281 9.16622 16.1721 9.04622 16.2111 8.81922C16.5971 6.69422 18.4341 6.05322 20.0781 6.05322C20.9181 6.05322 22.0181 6.28722 22.6821 6.95322C23.5241 7.77322 23.4441 8.87122 23.4441 10.0632V12.8812C23.4441 13.7282 23.7791 14.1012 24.0941 14.5572C24.2071 14.7212 24.2321 14.9172 24.0911 15.0392C23.7381 15.3472 23.1111 15.9192 22.7651 16.2392C22.708 16.2867 22.6379 16.3157 22.564 16.3225C22.4901 16.3293 22.4159 16.3135 22.3511 16.2772ZM20.6921 13.7442C21.0321 13.1182 21.0151 12.5302 21.0151 11.8262V11.4342C19.7651 11.4342 18.4451 11.7142 18.4451 13.2542C18.4451 14.0362 18.8311 14.5642 19.4951 14.5642C19.9821 14.5642 20.4171 14.2522 20.6921 13.7442Z" fill="#221F1F"/>
</g>
<defs>
<clipPath id="clip0_1_439">
<rect width="38" height="24" fill="white" transform="translate(0.537109 0.986328)"/>
</clipPath>
</defs>
</svg>
