<svg width="39" height="22" viewBox="0 0 39 22" fill="none" xmlns="http://www.w3.org/2000/svg">
<g clip-path="url(#clip0_1_434)">
<path opacity="0.07" d="M35.5371 0.986328H3.53711C1.83711 0.986328 0.537109 2.28633 0.537109 3.98633V21.9863C0.537109 23.6863 1.93711 24.9863 3.53711 24.9863H35.5371C37.2371 24.9863 38.5371 23.6863 38.5371 21.9863V3.98633C38.5371 2.28633 37.1371 0.986328 35.5371 0.986328Z" fill="#00333E"/>
<path d="M35.5371 1.98633C36.6371 1.98633 37.5371 2.88633 37.5371 3.98633V21.9863C37.5371 23.0863 36.6371 23.9863 35.5371 23.9863H3.53711C2.43711 23.9863 1.53711 23.0863 1.53711 21.9863V3.98633C1.53711 2.88633 2.43711 1.98633 3.53711 1.98633H35.5371Z" fill="#006FCF"/>
<path d="M9.50811 11.2543L10.2821 13.1303H8.74011L9.50811 11.2543ZM25.5831 11.3323H22.6061V12.1593H25.5351V13.3983H22.6121V14.3203H25.5891V15.0593L27.6661 12.8143L25.5891 10.4743L25.5831 11.3323ZM11.5201 8.99233H15.5151L16.4021 10.9273L17.2241 8.98633H27.5941L28.6721 10.1763L29.7871 8.98633H34.5501L31.0311 12.8383L34.5141 16.6663H29.6801L28.6021 15.4763L27.4771 16.6663H10.5671L10.0731 15.4763H8.94311L8.44811 16.6663H4.53711L7.82311 8.98633H11.2531L11.5201 8.99233ZM20.1831 10.0703H17.9441L16.4441 13.6063L14.8191 10.0703H12.5971V14.8803L10.5371 10.0703H8.54411L6.16211 15.5823H7.71711L8.21111 14.3923H10.8071L11.3011 15.5823H14.0211V11.6473L15.7721 15.5883H16.9621L18.7021 11.6593V15.5893H20.1601L20.1841 10.0693L20.1831 10.0703ZM29.5231 12.8383L32.0541 10.0703H30.2321L28.6311 11.7963L27.0831 10.0703H21.1891V15.5883H26.9991L28.6131 13.8503L30.1611 15.5883H32.0361L29.5241 12.8383H29.5231Z" fill="white"/>
</g>
<defs>
<clipPath id="clip0_1_434">
<rect width="38" height="24" fill="white" transform="translate(0.537109 0.986328)"/>
</clipPath>
</defs>
</svg>
