<svg width="39" height="22" viewBox="0 0 39 22" fill="none" xmlns="http://www.w3.org/2000/svg">
<g clip-path="url(#clip0_1_430)">
<path opacity="0.07" d="M35.5371 0.986328H3.53711C1.83711 0.986328 0.537109 2.28633 0.537109 3.98633V21.9863C0.537109 23.6863 1.93711 24.9863 3.53711 24.9863H35.5371C37.2371 24.9863 38.5371 23.6863 38.5371 21.9863V3.98633C38.5371 2.28633 37.1371 0.986328 35.5371 0.986328Z" fill="#00333E"/>
<path d="M35.5371 1.98633C36.6371 1.98633 37.5371 2.88633 37.5371 3.98633V21.9863C37.5371 23.0863 36.6371 23.9863 35.5371 23.9863H3.53711C2.43711 23.9863 1.53711 23.0863 1.53711 21.9863V3.98633C1.53711 2.88633 2.43711 1.98633 3.53711 1.98633H35.5371Z" fill="white"/>
<path d="M12.5376 12.9863V16.6863C12.5376 16.9863 12.3376 16.9863 12.0376 16.8863C10.1376 16.0863 9.03758 13.5863 9.73758 11.4863C10.1376 10.3863 10.9376 9.48633 12.0376 9.08633C12.4376 8.88633 12.5376 8.98633 12.5376 9.28633V12.9863ZM14.5376 12.9863V9.28633C14.5376 8.98633 14.5376 8.98633 14.8376 9.08633C16.9376 9.88633 18.0376 12.3863 17.2376 14.4863C16.8376 15.5863 16.0376 16.4863 14.9376 16.8863C14.5376 17.0863 14.5376 16.9863 14.5376 16.6863V12.9863ZM21.7376 5.98633H13.5376C17.3376 5.98633 20.3376 9.08633 20.3376 12.9863C20.3376 16.8863 17.3376 19.9863 13.5376 19.9863H21.7376C25.5376 19.9863 28.5376 16.8863 28.5376 12.9863C28.5376 9.08633 25.5376 5.98633 21.7376 5.98633Z" fill="#3086C8"/>
</g>
<defs>
<clipPath id="clip0_1_430">
<rect width="38" height="24" fill="white" transform="translate(0.537109 0.986328)"/>
</clipPath>
</defs>
</svg>
