<svg width="39" height="22" viewBox="0 0 39 22" fill="none" xmlns="http://www.w3.org/2000/svg">
<g clip-path="url(#clip0_1_421)">
<path opacity="0.07" d="M35.5371 0.986328H3.53711C1.83711 0.986328 0.537109 2.28633 0.537109 3.98633V21.9863C0.537109 23.6863 1.93711 24.9863 3.53711 24.9863H35.5371C37.2371 24.9863 38.5371 23.6863 38.5371 21.9863V3.98633C38.5371 2.28633 37.1371 0.986328 35.5371 0.986328Z" fill="#00333E"/>
<path d="M35.5371 1.98633C36.6371 1.98633 37.5371 2.88633 37.5371 3.98633V21.9863C37.5371 23.0863 36.6371 23.9863 35.5371 23.9863H3.53711C2.43711 23.9863 1.53711 23.0863 1.53711 21.9863V3.98633C1.53711 2.88633 2.43711 1.98633 3.53711 1.98633H35.5371Z" fill="white"/>
<path d="M4.10711 8.14637H2.53711V13.6464H4.10711C4.93711 13.6464 5.53711 13.4464 6.06711 13.0164C6.69711 12.4964 7.06711 11.7164 7.06711 10.9064C7.05711 9.27637 5.84711 8.14637 4.10711 8.14637ZM5.36711 12.2864C5.02711 12.5864 4.59711 12.7264 3.89711 12.7264H3.60711V9.08637H3.89711C4.58711 9.08637 5.00711 9.20637 5.36711 9.52637C5.73711 9.85637 5.95711 10.3664 5.95711 10.8964C5.95711 11.4264 5.73711 11.9564 5.36711 12.2864ZM7.55711 8.14637H8.62711V13.6464H7.55711V8.14637ZM11.2471 10.2564C10.6071 10.0164 10.4171 9.85637 10.4171 9.56637C10.4171 9.21637 10.7571 8.95637 11.2171 8.95637C11.5371 8.95637 11.8071 9.08637 12.0771 9.40637L12.6371 8.67637C12.1771 8.27637 11.6271 8.06637 11.0171 8.06637C10.0471 8.06637 9.29711 8.74637 9.29711 9.64637C9.29711 10.4064 9.64711 10.7964 10.6471 11.1564C11.0671 11.3064 11.2771 11.4064 11.3871 11.4664C11.5971 11.6064 11.7071 11.8064 11.7071 12.0364C11.7071 12.4864 11.3571 12.8164 10.8771 12.8164C10.3671 12.8164 9.95711 12.5564 9.70711 12.0864L9.01711 12.7564C9.50711 13.4864 10.1071 13.8064 10.9171 13.8064C12.0271 13.8064 12.8171 13.0664 12.8171 11.9964C12.8371 11.1064 12.4671 10.7064 11.2471 10.2564ZM13.1671 10.9064C13.1671 12.5264 14.4371 13.7764 16.0671 13.7764C16.5271 13.7764 16.9271 13.6864 17.4071 13.4564V12.1964C16.9771 12.6264 16.5971 12.7964 16.1171 12.7964C15.0371 12.7964 14.2671 12.0164 14.2671 10.8964C14.2671 9.83637 15.0571 9.00637 16.0671 9.00637C16.5771 9.00637 16.9671 9.18637 17.4071 9.62637V8.36637C16.9371 8.12637 16.5471 8.02637 16.0871 8.02637C14.4771 8.02637 13.1671 9.30637 13.1671 10.9064ZM25.9271 11.8464L24.4571 8.14637H23.2871L25.6171 13.7864H26.1971L28.5671 8.14637H27.4071L25.9271 11.8464ZM29.0571 13.6464H32.0971V12.7164H30.1271V11.2364H32.0271V10.3064H30.1271V9.08637H32.0971V8.14637H29.0571V13.6464ZM36.3471 9.77637C36.3471 8.74637 35.6371 8.15637 34.3971 8.15637H32.8071V13.6564H33.8771V11.4464H34.0171L35.4971 13.6564H36.8171L35.0871 11.3364C35.8971 11.1664 36.3471 10.6164 36.3471 9.77637ZM34.1871 10.6864H33.8771V9.01637H34.2071C34.8771 9.01637 35.2371 9.29637 35.2371 9.83637C35.2371 10.3864 34.8771 10.6864 34.1871 10.6864Z" fill="#00333E"/>
<path d="M20.6966 13.8464C21.474 13.8464 22.2195 13.5376 22.7692 12.9879C23.3188 12.4382 23.6276 11.6927 23.6276 10.9154C23.6276 10.138 23.3188 9.39251 22.7692 8.84284C22.2195 8.29318 21.474 7.98438 20.6966 7.98438C19.9193 7.98438 19.1738 8.29318 18.6241 8.84284C18.0744 9.39251 17.7656 10.138 17.7656 10.9154C17.7656 11.6927 18.0744 12.4382 18.6241 12.9879C19.1738 13.5376 19.9193 13.8464 20.6966 13.8464Z" fill="black" fill-opacity="0.49"/>
<path d="M20.6966 13.8464C21.474 13.8464 22.2195 13.5376 22.7692 12.9879C23.3188 12.4382 23.6276 11.6927 23.6276 10.9154C23.6276 10.138 23.3188 9.39251 22.7692 8.84284C22.2195 8.29318 21.474 7.98438 20.6966 7.98438C19.9193 7.98438 19.1738 8.29318 18.6241 8.84284C18.0744 9.39251 17.7656 10.138 17.7656 10.9154C17.7656 11.6927 18.0744 12.4382 18.6241 12.9879C19.1738 13.5376 19.9193 13.8464 20.6966 13.8464Z" fill="#E67526"/>
<path d="M37.1076 8.49229C37.1076 8.39229 37.0376 8.34229 36.9276 8.34229H36.7676V8.82229H36.8876V8.63229L37.0276 8.82229H37.1676L37.0076 8.62229C37.0676 8.61229 37.1076 8.56229 37.1076 8.49229ZM36.9076 8.56229H36.8876V8.43229H36.9076C36.9676 8.43229 36.9976 8.45229 36.9976 8.49229C36.9976 8.54229 36.9676 8.56229 36.9076 8.56229Z" fill="#00333E"/>
<path d="M36.9471 8.16235C36.7171 8.16235 36.5271 8.35235 36.5271 8.58235C36.5271 8.81235 36.7171 9.00235 36.9471 9.00235C37.1771 9.00235 37.3671 8.81235 37.3671 8.58235C37.3671 8.35235 37.1771 8.16235 36.9471 8.16235ZM36.9471 8.93235C36.7671 8.93235 36.6071 8.78235 36.6071 8.58235C36.6071 8.39235 36.7571 8.23235 36.9471 8.23235C37.1271 8.23235 37.2771 8.39235 37.2771 8.58235C37.2771 8.77235 37.1271 8.93235 36.9471 8.93235Z" fill="#00333E"/>
<path d="M37.5367 13.9702C37.5367 13.9702 27.6267 20.8592 9.5127 23.9862H35.5357C36.0634 23.9862 36.5697 23.7777 36.9443 23.4061C37.3189 23.0345 37.5315 22.5299 37.5357 22.0022L37.5597 18.9822L37.5367 13.9712V13.9702Z" fill="#E67526"/>
</g>
<defs>
<clipPath id="clip0_1_421">
<rect width="38" height="24" fill="white" transform="translate(0.537109 0.986328)"/>
</clipPath>
</defs>
</svg>
