<svg width="39" height="22" viewBox="0 0 39 22" fill="none" xmlns="http://www.w3.org/2000/svg">
<g clip-path="url(#clip0_1_405)">
<path opacity="0.07" d="M35.5371 0.986328H3.53711C1.83711 0.986328 0.537109 2.28633 0.537109 3.98633V21.9863C0.537109 23.6863 1.93711 24.9863 3.53711 24.9863H35.5371C37.2371 24.9863 38.5371 23.6863 38.5371 21.9863V3.98633C38.5371 2.28633 37.1371 0.986328 35.5371 0.986328Z" fill="#00333E"/>
<path d="M35.5371 1.98633C36.6371 1.98633 37.5371 2.88633 37.5371 3.98633V21.9863C37.5371 23.0863 36.6371 23.9863 35.5371 23.9863H3.53711C2.43711 23.9863 1.53711 23.0863 1.53711 21.9863V3.98633C1.53711 2.88633 2.43711 1.98633 3.53711 1.98633H35.5371Z" fill="white"/>
<path d="M18.6301 12.9623V16.1623H17.6121V8.26231H20.3031C20.6255 8.25686 20.9459 8.31518 21.2457 8.43394C21.5455 8.5527 21.8189 8.72954 22.0501 8.95431C22.2691 9.15871 22.4457 9.40427 22.5698 9.67695C22.6939 9.94964 22.763 10.2441 22.7732 10.5435C22.7835 10.8429 22.7346 11.1414 22.6294 11.4219C22.5242 11.7024 22.3647 11.9595 22.1601 12.1783L22.0501 12.2943C21.5801 12.7413 20.9521 12.9843 20.3031 12.9683L18.6301 12.9623ZM18.6301 9.23031V12.0183H20.3281C20.7051 12.0303 21.0691 11.8833 21.3331 11.6143C21.5219 11.4175 21.6487 11.1695 21.6977 10.9011C21.7467 10.6328 21.7157 10.356 21.6086 10.1051C21.5015 9.85428 21.3231 9.64045 21.0954 9.49023C20.8677 9.34002 20.6009 9.26007 20.3281 9.26031L18.6301 9.23031ZM25.1141 10.5783C25.7641 10.5483 26.4001 10.7663 26.8921 11.1913C27.3371 11.6213 27.5741 12.2213 27.5421 12.8403V16.1743H26.5731V15.4083H26.5241C26.3503 15.6956 26.1046 15.9326 25.8112 16.0959C25.5178 16.2592 25.1869 16.3431 24.8511 16.3393C24.303 16.3571 23.7685 16.1666 23.3551 15.8063C23.1592 15.6465 23.0023 15.4443 22.8961 15.2149C22.7899 14.9856 22.7372 14.735 22.7421 14.4823C22.7306 14.2269 22.7802 13.9724 22.8868 13.7401C22.9934 13.5077 23.154 13.3041 23.3551 13.1463C23.8485 12.7915 24.4457 12.6103 25.0531 12.6313C25.5701 12.6113 26.0831 12.7243 26.5431 12.9623V12.7543C26.5465 12.5823 26.5107 12.4119 26.4384 12.2558C26.3662 12.0997 26.2594 11.962 26.1261 11.8533C25.8584 11.61 25.5078 11.4783 25.1461 11.4853C24.8834 11.4828 24.6245 11.5474 24.3937 11.6728C24.1629 11.7983 23.9679 11.9805 23.8271 12.2023L22.9321 11.6383C23.1751 11.2901 23.5032 11.0099 23.8852 10.8244C24.2671 10.6388 24.6902 10.5541 25.1141 10.5783ZM23.8271 14.5063C23.8247 14.6358 23.8542 14.764 23.9129 14.8794C23.9717 14.9948 24.058 15.0941 24.1641 15.1683C24.3871 15.3443 24.6641 15.4373 24.9491 15.4313C25.3781 15.4303 25.7891 15.2613 26.0951 14.9593C26.4001 14.6733 26.5731 14.2743 26.5731 13.8563C26.1881 13.5826 25.7204 13.4505 25.2491 13.4823C24.8832 13.4679 24.5223 13.5709 24.2191 13.7763C24.099 13.8566 24.0005 13.9652 23.9322 14.0925C23.8638 14.2198 23.8277 14.3619 23.8271 14.5063ZM33.1131 10.7563L29.7231 18.5463H28.6751L29.9561 15.8183L27.7321 10.7563H28.8351L30.4471 14.6413L32.0161 10.7563H33.1131Z" fill="#5F6368"/>
<path d="M14.5231 12.2703C14.5231 11.9623 14.4991 11.6543 14.4501 11.3503H10.1601V13.0973H12.6111C12.5612 13.375 12.4558 13.6397 12.3011 13.8756C12.1465 14.1115 11.9458 14.3138 11.7111 14.4703V15.6043H13.1751C13.6203 15.1736 13.9702 14.6544 14.2024 14.0802C14.4346 13.5059 14.5438 12.8894 14.5231 12.2703Z" fill="#4285F4"/>
<path d="M10.1661 16.7073C11.2724 16.7376 12.3488 16.3454 13.1761 15.6103L11.7101 14.4703C11.3579 14.6961 10.9588 14.8387 10.5431 14.8871C10.1275 14.9355 9.70632 14.8885 9.3116 14.7497C8.91687 14.6108 8.559 14.3838 8.2652 14.0859C7.9714 13.7879 7.74941 13.4269 7.61611 13.0303H6.11411V14.2003C6.48996 14.9533 7.06816 15.5867 7.78387 16.0296C8.49958 16.4724 9.32449 16.7071 10.1661 16.7073Z" fill="#34A853"/>
<path d="M7.61611 13.0363C7.4259 12.4737 7.4259 11.864 7.61611 11.3013V10.1313H6.11411C5.7939 10.7628 5.62702 11.4608 5.62702 12.1688C5.62702 12.8769 5.7939 13.5749 6.11411 14.2063L7.61611 13.0363Z" fill="#FBBC04"/>
<path d="M10.1661 9.42627C10.8131 9.41445 11.4386 9.65888 11.9061 10.1063L13.2061 8.81327C12.3772 8.03528 11.2778 7.61093 10.1411 7.63027C9.30448 7.63447 8.48535 7.87028 7.77455 8.31155C7.06374 8.75283 6.48902 9.38233 6.11411 10.1303L7.61611 11.3013C7.79173 10.7614 8.1322 10.2901 8.58962 9.95374C9.04704 9.61741 9.59839 9.43293 10.1661 9.42627Z" fill="#EA4335"/>
</g>
<defs>
<clipPath id="clip0_1_405">
<rect width="38" height="24" fill="white" transform="translate(0.537109 0.986328)"/>
</clipPath>
</defs>
</svg>
