<svg width="39" height="22" viewBox="0 0 39 22" fill="none" xmlns="http://www.w3.org/2000/svg">
<g clip-path="url(#clip0_1_399)">
<path opacity="0.07" d="M35.5371 0.986328H3.53711C1.83711 0.986328 0.537109 2.28633 0.537109 3.98633V21.9863C0.537109 23.6863 1.93711 24.9863 3.53711 24.9863H35.5371C37.2371 24.9863 38.5371 23.6863 38.5371 21.9863V3.98633C38.5371 2.28633 37.1371 0.986328 35.5371 0.986328Z" fill="#00333E"/>
<path d="M35.5371 1.98633C36.6371 1.98633 37.5371 2.88633 37.5371 3.98633V21.9863C37.5371 23.0863 36.6371 23.9863 35.5371 23.9863H3.53711C2.43711 23.9863 1.53711 23.0863 1.53711 21.9863V3.98633C1.53711 2.88633 2.43711 1.98633 3.53711 1.98633H35.5371Z" fill="white"/>
<path d="M15.5371 19.9863C19.4031 19.9863 22.5371 16.8523 22.5371 12.9863C22.5371 9.12033 19.4031 5.98633 15.5371 5.98633C11.6711 5.98633 8.53711 9.12033 8.53711 12.9863C8.53711 16.8523 11.6711 19.9863 15.5371 19.9863Z" fill="#EB001B"/>
<path d="M23.5371 19.9863C27.4031 19.9863 30.5371 16.8523 30.5371 12.9863C30.5371 9.12033 27.4031 5.98633 23.5371 5.98633C19.6711 5.98633 16.5371 9.12033 16.5371 12.9863C16.5371 16.8523 19.6711 19.9863 23.5371 19.9863Z" fill="#F79E1B"/>
<path d="M22.5371 12.9864C22.5371 10.5864 21.3371 8.48638 19.5371 7.28638C17.7371 8.58638 16.5371 10.6864 16.5371 12.9864C16.5371 15.2864 17.7371 17.4864 19.5371 18.6864C21.3371 17.4864 22.5371 15.3864 22.5371 12.9864Z" fill="#FF5F00"/>
</g>
<defs>
<clipPath id="clip0_1_399">
<rect width="38" height="24" fill="white" transform="translate(0.537109 0.986328)"/>
</clipPath>
</defs>
</svg>
