<svg width="39" height="22" viewBox="0 0 39 22" fill="none" xmlns="http://www.w3.org/2000/svg">
<g clip-path="url(#clip0_1_414)">
<path opacity="0.07" d="M35.5371 0.986328H3.53711C1.83711 0.986328 0.537109 2.28633 0.537109 3.98633V21.9863C0.537109 23.6863 1.93711 24.9863 3.53711 24.9863H35.5371C37.2371 24.9863 38.5371 23.6863 38.5371 21.9863V3.98633C38.5371 2.28633 37.1371 0.986328 35.5371 0.986328Z" fill="#00333E"/>
<path d="M35.5371 1.98633C36.6371 1.98633 37.5371 2.88633 37.5371 3.98633V21.9863C37.5371 23.0863 36.6371 23.9863 35.5371 23.9863H3.53711C2.43711 23.9863 1.53711 23.0863 1.53711 21.9863V3.98633C1.53711 2.88633 2.43711 1.98633 3.53711 1.98633H35.5371Z" fill="white"/>
<path d="M5.52011 13.9723C5.52011 14.3203 5.59611 14.5863 5.69611 14.7483C5.74914 14.8402 5.82557 14.9163 5.91762 14.969C6.00967 15.0217 6.11405 15.0491 6.22011 15.0483C6.47711 15.0483 6.71111 14.9853 7.16311 14.3603C7.52511 13.8603 7.95111 13.1563 8.23911 12.7153L8.72511 11.9683C9.06211 11.4503 9.45311 10.8733 9.90111 10.4823C10.2671 10.1633 10.6611 9.98633 11.0591 9.98633C11.7261 9.98633 12.3611 10.3723 12.8471 11.0973C13.3791 11.8913 13.6371 12.8903 13.6371 13.9223C13.6371 14.5353 13.5171 14.9863 13.3111 15.3423C13.1111 15.6873 12.7241 16.0303 12.0731 16.0303V15.0493C12.6311 15.0493 12.7701 14.5363 12.7701 13.9493C12.7701 13.1133 12.5751 12.1853 12.1461 11.5223C11.8411 11.0523 11.4461 10.7653 11.0121 10.7653C10.5421 10.7653 10.1641 11.1193 9.73811 11.7513C9.51211 12.0873 9.28111 12.4963 9.02011 12.9583L8.73311 13.4663C8.15711 14.4863 8.01111 14.7203 7.72311 15.1033C7.21911 15.7753 6.78811 16.0303 6.22111 16.0303C5.54711 16.0303 5.12111 15.7393 4.85811 15.3003C4.64311 14.9423 4.53711 14.4723 4.53711 13.9363L5.52011 13.9713V13.9723Z" fill="#0081FB"/>
<path d="M5.3125 11.1663C5.7625 10.4723 6.4125 9.98633 7.1595 9.98633C7.5915 9.98633 8.0205 10.1143 8.4695 10.4803C8.9595 10.8803 9.4825 11.5403 10.1345 12.6263L10.3685 13.0163C10.9335 13.9563 11.2545 14.4403 11.4425 14.6683C11.6845 14.9613 11.8535 15.0483 12.0735 15.0483C12.6315 15.0483 12.7705 14.5363 12.7705 13.9493L13.6375 13.9223C13.6375 14.5353 13.5175 14.9863 13.3115 15.3423C13.1115 15.6873 12.7245 16.0303 12.0735 16.0303C11.6685 16.0303 11.3095 15.9423 10.9135 15.5683C10.6075 15.2813 10.2505 14.7703 9.9765 14.3113L9.1605 12.9483C8.7505 12.2643 8.3755 11.7543 8.1575 11.5233C7.9235 11.2743 7.6235 10.9743 7.1435 10.9743C6.7555 10.9743 6.4255 11.2473 6.1495 11.6643L5.3125 11.1663Z" fill="url(#paint0_linear_1_414)"/>
<path d="M7.14311 10.9743C6.75511 10.9743 6.42511 11.2473 6.14911 11.6643C5.75911 12.2523 5.52011 13.1303 5.52011 13.9723C5.52011 14.3203 5.59611 14.5863 5.69611 14.7483L4.85811 15.3003C4.64311 14.9423 4.53711 14.4723 4.53711 13.9363C4.53711 12.9633 4.80411 11.9493 5.31211 11.1663C5.76211 10.4713 6.41211 9.98633 7.15911 9.98633L7.14311 10.9743Z" fill="url(#paint1_linear_1_414)"/>
<path d="M15.5471 10.1772H16.6851L18.6181 13.6752L20.5521 10.1772H21.6641V15.9242H20.7361V11.5192L19.0411 14.5692H18.1711L16.4751 11.5192V15.9242H15.5481V10.1772H15.5471ZM24.5701 12.3202C23.9051 12.3202 23.5041 12.8202 23.4081 13.4402H25.6661C25.6201 12.8022 25.2511 12.3202 24.5701 12.3202ZM22.4891 13.7942C22.4891 12.4892 23.3321 11.5402 24.5861 11.5402C25.8201 11.5402 26.5571 12.4772 26.5571 13.8632V14.1182H23.4091C23.5201 14.7922 23.9681 15.2472 24.6891 15.2472C25.2651 15.2472 25.6251 15.0712 25.9661 14.7502L26.4591 15.3532C25.9941 15.7802 25.4041 16.0272 24.6561 16.0272C23.2981 16.0272 22.4891 15.0372 22.4891 13.7942ZM27.6821 12.4022H26.8281V11.6422H27.6821V10.3882H28.5771V11.6442H29.8741V12.4042H28.5771V14.3282C28.5771 14.9852 28.7871 15.2182 29.3031 15.2182C29.5391 15.2182 29.6741 15.1982 29.8731 15.1652V15.9172C29.6251 15.9872 29.3881 16.0192 29.1311 16.0192C28.1651 16.0192 27.6811 15.4912 27.6811 14.4352V12.4032L27.6821 12.4022ZM33.6421 13.1412C33.5544 12.9038 33.3942 12.7 33.1842 12.5585C32.9742 12.4171 32.7251 12.3453 32.4721 12.3532C31.7061 12.3532 31.2161 12.8962 31.2161 13.7812C31.2161 14.6442 31.6671 15.2142 32.4361 15.2142C33.0391 15.2142 33.4701 14.8632 33.6421 14.4262V13.1412ZM34.5371 15.9242H33.6591V15.3242C33.4131 15.6772 32.9661 16.0272 32.2421 16.0272C31.0781 16.0272 30.3011 15.0522 30.3011 13.7812C30.3011 12.4982 31.0971 11.5402 32.2911 11.5402C32.8821 11.5402 33.3461 11.7762 33.6591 12.1932V11.6432H34.5371V15.9242Z" fill="#00333E"/>
</g>
<defs>
<linearGradient id="paint0_linear_1_414" x1="6.4675" y1="13.6893" x2="12.7335" y2="14.0053" gradientUnits="userSpaceOnUse">
<stop stop-color="#0064E1"/>
<stop offset="0.4" stop-color="#0064E1"/>
<stop offset="0.83" stop-color="#0073EE"/>
<stop offset="1" stop-color="#0082FB"/>
</linearGradient>
<linearGradient id="paint1_linear_1_414" x1="5.96111" y1="14.3853" x2="5.96111" y2="12.0753" gradientUnits="userSpaceOnUse">
<stop stop-color="#0082FB"/>
<stop offset="1" stop-color="#0064E0"/>
</linearGradient>
<clipPath id="clip0_1_414">
<rect width="38" height="24" fill="white" transform="translate(0.537109 0.986328)"/>
</clipPath>
</defs>
</svg>
