<svg width="39" height="22" viewBox="0 0 39 22" fill="none" xmlns="http://www.w3.org/2000/svg">
<g clip-path="url(#clip0_1_392)">
<path opacity="0.07" d="M35.5371 0.986328H3.53711C1.83711 0.986328 0.537109 2.28633 0.537109 3.98633V21.9863C0.537109 23.6863 1.93711 24.9863 3.53711 24.9863H35.5371C37.2371 24.9863 38.5371 23.6863 38.5371 21.9863V3.98633C38.5371 2.28633 37.1371 0.986328 35.5371 0.986328Z" fill="#00333E"/>
<path d="M35.5371 1.98633C36.6371 1.98633 37.5371 2.88633 37.5371 3.98633V21.9863C37.5371 23.0863 36.6371 23.9863 35.5371 23.9863H3.53711C2.43711 23.9863 1.53711 23.0863 1.53711 21.9863V3.98633C1.53711 2.88633 2.43711 1.98633 3.53711 1.98633H35.5371Z" fill="white"/>
<path d="M24.4371 9.28633C24.6371 8.28633 24.4371 7.58633 23.8371 6.98633C23.2371 6.28633 22.1371 5.98633 20.7371 5.98633H16.6371C16.3371 5.98633 16.1371 6.18633 16.0371 6.48633L14.5371 16.5863C14.5371 16.7863 14.6371 16.9863 14.8371 16.9863H17.5371L17.9371 13.5863L19.7371 11.3863L24.4371 9.28633Z" fill="#003087"/>
<path d="M24.4367 9.28613L24.2367 9.48613C23.7367 12.2861 22.0367 13.2861 19.6367 13.2861H18.5367C18.2367 13.2861 18.0367 13.4861 17.9367 13.7861L17.3367 17.6861L17.1367 18.6861C17.1367 18.8861 17.2367 19.0861 17.4367 19.0861H19.5367C19.8367 19.0861 20.0367 18.8861 20.0367 18.6861V18.5861L20.4367 16.1861V16.0861C20.4367 15.8861 20.7367 15.6861 20.9367 15.6861H21.2367C23.3367 15.6861 24.9367 14.8861 25.3367 12.4861C25.5367 11.4861 25.4367 10.6861 24.9367 10.0861C24.8367 9.58613 24.6367 9.38613 24.4367 9.28613Z" fill="#3086C8"/>
<path d="M23.8375 9.08613C23.7375 8.98613 23.6375 8.98613 23.5375 8.98613C23.4375 8.98613 23.3375 8.98613 23.2375 8.88613C22.9375 8.78613 22.5375 8.78613 22.1375 8.78613H19.1375C19.0375 8.78613 18.9375 8.78613 18.9375 8.88613C18.7375 8.98613 18.6375 9.08613 18.6375 9.28613L17.9375 13.6861V13.7861C17.9375 13.4861 18.2375 13.2861 18.5375 13.2861H19.8375C22.3375 13.2861 23.9375 12.2861 24.4375 9.48613V9.28613C24.3375 9.18613 24.1375 9.08613 23.9375 9.08613H23.8375Z" fill="#012169"/>
</g>
<defs>
<clipPath id="clip0_1_392">
<rect width="38" height="24" fill="white" transform="translate(0.537109 0.986328)"/>
</clipPath>
</defs>
</svg>
