<svg width="39" height="22" viewBox="0 0 39 22" fill="none" xmlns="http://www.w3.org/2000/svg">
<g clip-path="url(#clip0_1_387)">
<path opacity="0.07" d="M35.5371 0.986328H3.53711C1.83711 0.986328 0.537109 2.28633 0.537109 3.98633V21.9863C0.537109 23.6863 1.93711 24.9863 3.53711 24.9863H35.5371C37.2371 24.9863 38.5371 23.6863 38.5371 21.9863V3.98633C38.5371 2.28633 37.1371 0.986328 35.5371 0.986328Z" fill="#00333E"/>
<path d="M35.5371 1.98633C36.6371 1.98633 37.5371 2.88633 37.5371 3.98633V21.9863C37.5371 23.0863 36.6371 23.9863 35.5371 23.9863H3.53711C2.43711 23.9863 1.53711 23.0863 1.53711 21.9863V3.98633C1.53711 2.88633 2.43711 1.98633 3.53711 1.98633H35.5371Z" fill="#5A31F4"/>
<path d="M21.9191 10.6994C21.9191 12.3674 20.7421 13.5574 19.0981 13.5574H17.5491C17.5235 13.5578 17.4986 13.5655 17.4773 13.5797C17.456 13.5939 17.4393 13.6139 17.4291 13.6374C17.4226 13.6529 17.4192 13.6695 17.4191 13.6864V15.8784C17.4191 15.8954 17.4157 15.9123 17.4092 15.928C17.4026 15.9437 17.3931 15.958 17.381 15.97C17.3689 15.9819 17.3545 15.9914 17.3388 15.9978C17.323 16.0043 17.3061 16.0075 17.2891 16.0074H16.2051C16.1706 16.0074 16.1376 15.9937 16.1132 15.9693C16.0888 15.9449 16.0751 15.9119 16.0751 15.8774V7.97238C16.0747 7.94663 16.0821 7.92135 16.0964 7.89992C16.1107 7.87849 16.1312 7.86191 16.1551 7.85238C16.1709 7.84575 16.1879 7.84235 16.2051 7.84238H19.1051C20.7421 7.84238 21.9191 9.03238 21.9191 10.7004V10.6994ZM20.5671 10.6994C20.5671 9.74138 19.9091 9.04138 19.0171 9.04138H17.5491C17.532 9.04138 17.5151 9.04474 17.4994 9.05128C17.4836 9.05781 17.4693 9.06738 17.4572 9.07946C17.4451 9.09153 17.4355 9.10586 17.429 9.12163C17.4225 9.1374 17.4191 9.15431 17.4191 9.17138V12.2214C17.4189 12.2385 17.4222 12.2554 17.4287 12.2713C17.4352 12.2871 17.4449 12.3014 17.4571 12.3134C17.4692 12.3255 17.4835 12.3351 17.4993 12.3416C17.5151 12.3481 17.532 12.3515 17.5491 12.3514H19.0171C19.9091 12.3564 20.5671 11.6564 20.5671 10.6994ZM22.2411 14.4904C22.2297 14.2342 22.283 13.9792 22.396 13.7491C22.5091 13.5189 22.6783 13.3209 22.8881 13.1734C23.3111 12.8574 23.9721 12.6934 24.9431 12.6594L25.9761 12.6234V12.3204C25.9761 11.7134 25.5661 11.4574 24.9081 11.4574C24.2501 11.4574 23.8331 11.6884 23.7381 12.0674C23.73 12.094 23.7134 12.1172 23.6908 12.1335C23.6682 12.1498 23.6409 12.1581 23.6131 12.1574H22.5911C22.563 12.1577 22.5355 12.149 22.5128 12.1324C22.4901 12.1158 22.4733 12.0923 22.4651 12.0654C22.4597 12.0476 22.4583 12.0288 22.4611 12.0104C22.6131 11.1124 23.3651 10.4304 24.9551 10.4304C26.6471 10.4304 27.2581 11.2134 27.2581 12.7064V15.8784C27.258 15.8955 27.2545 15.9125 27.2477 15.9283C27.241 15.9441 27.2312 15.9584 27.219 15.9704C27.2067 15.9824 27.1922 15.9918 27.1762 15.9982C27.1603 16.0045 27.1433 16.0076 27.1261 16.0074H26.0961C26.0616 16.0074 26.0286 15.9937 26.0042 15.9693C25.9798 15.9449 25.9661 15.9119 25.9661 15.8774V15.6414C25.9664 15.6218 25.9608 15.6026 25.9499 15.5863C25.939 15.5701 25.9233 15.5575 25.9051 15.5504C25.8871 15.5433 25.8673 15.5416 25.8483 15.5455C25.8293 15.5494 25.8119 15.5587 25.7981 15.5724C25.4881 15.9064 24.9901 16.1474 24.1911 16.1474C23.0161 16.1474 22.2411 15.5404 22.2411 14.4904ZM25.9761 13.8034V13.5574L24.6371 13.6274C23.9321 13.6634 23.5221 13.9534 23.5221 14.4434C23.5221 14.8874 23.8981 15.1334 24.5561 15.1334C25.4491 15.1334 25.9761 14.6534 25.9761 13.8034ZM28.2921 18.4034V17.4844C28.2924 17.4651 28.2969 17.4462 28.3054 17.4289C28.3138 17.4116 28.326 17.3964 28.3411 17.3844C28.3561 17.3723 28.3735 17.3636 28.3921 17.3589C28.4108 17.3543 28.4302 17.3537 28.4491 17.3574C28.6071 17.3864 28.7671 17.4014 28.9281 17.4014C29.2039 17.4165 29.4767 17.3383 29.7026 17.1793C29.9284 17.0204 30.0942 16.79 30.1731 16.5254L30.2401 16.3144C30.2501 16.2859 30.2501 16.2549 30.2401 16.2264L28.0951 10.7554C28.0827 10.7254 28.0819 10.6918 28.093 10.6612C28.1042 10.6307 28.1263 10.6054 28.1551 10.5904C28.1742 10.5803 28.1955 10.5752 28.2171 10.5754H29.2571C29.2838 10.5755 29.3098 10.5836 29.3318 10.5988C29.3538 10.614 29.3706 10.6354 29.3801 10.6604L30.8361 14.5194C30.8451 14.5453 30.862 14.5677 30.8844 14.5835C30.9069 14.5993 30.9337 14.6076 30.9611 14.6074C30.9885 14.6073 31.0151 14.5989 31.0375 14.5831C31.0599 14.5674 31.0768 14.5451 31.0861 14.5194L32.3511 10.6714C32.3597 10.6449 32.3766 10.6218 32.3992 10.6056C32.4219 10.5894 32.4492 10.5809 32.4771 10.5814H33.5531C33.5854 10.5816 33.6165 10.5934 33.6408 10.6147C33.665 10.636 33.6808 10.6654 33.6851 10.6974C33.6875 10.7187 33.6848 10.7403 33.6771 10.7604L31.3821 16.8364C30.8541 18.2494 29.9491 18.6094 28.9521 18.6094C28.7629 18.6146 28.5739 18.5924 28.3911 18.5434C28.3605 18.5359 28.3335 18.5176 28.3152 18.4919C28.2968 18.4662 28.2883 18.4348 28.2911 18.4034H28.2921ZM9.10711 7.38638C7.7426 7.37618 6.42553 7.88649 5.42411 8.81338C5.38149 8.85213 5.3549 8.90541 5.34953 8.96276C5.34417 9.02011 5.36042 9.07739 5.39511 9.12338L6.01311 9.96238C6.03313 9.99067 6.05914 10.0142 6.08929 10.0313C6.11943 10.0484 6.15298 10.0587 6.18753 10.0613C6.22209 10.064 6.25681 10.059 6.28923 10.0468C6.32165 10.0345 6.35097 10.0153 6.37511 9.99038C6.73503 9.63298 7.16248 9.35077 7.63255 9.1602C8.10262 8.96963 8.60591 8.87451 9.11311 8.88038C11.2331 8.88038 12.3401 10.4644 12.3401 12.0304C12.3401 13.7304 11.1771 14.9284 9.50511 14.9514C8.21311 14.9514 7.23911 14.1014 7.23911 12.9774C7.24021 12.6932 7.30481 12.4128 7.42816 12.1567C7.55152 11.9007 7.73053 11.6754 7.95211 11.4974C7.99928 11.4587 8.02923 11.4029 8.03542 11.3422C8.0416 11.2815 8.02351 11.2208 7.98511 11.1734L7.33511 10.3584C7.31548 10.3333 7.29099 10.3125 7.26311 10.2971C7.23523 10.2818 7.20453 10.2722 7.17286 10.2691C7.14119 10.2659 7.10921 10.2692 7.07883 10.2787C7.04845 10.2882 7.02032 10.3037 6.99611 10.3244C6.59801 10.6437 6.27619 11.0479 6.05411 11.5074C5.83282 11.9659 5.71764 12.4683 5.71711 12.9774C5.71711 14.9124 7.37211 16.4294 9.49211 16.4414H9.52211C12.0391 16.4094 13.8591 14.5574 13.8591 12.0264C13.8591 9.77938 12.1921 7.38638 9.10711 7.38638Z" fill="white"/>
</g>
<defs>
<clipPath id="clip0_1_387">
<rect width="38" height="24" fill="white" transform="translate(0.537109 0.986328)"/>
</clipPath>
</defs>
</svg>
