<svg width="39" height="22" viewBox="0 0 39 22" fill="none" xmlns="http://www.w3.org/2000/svg">
<g clip-path="url(#clip0_1_382)">
<path d="M35.5371 0.986328H3.53711C1.88026 0.986328 0.537109 2.32947 0.537109 3.98633V21.9863C0.537109 23.6432 1.88026 24.9863 3.53711 24.9863H35.5371C37.194 24.9863 38.5371 23.6432 38.5371 21.9863V3.98633C38.5371 2.32947 37.194 0.986328 35.5371 0.986328Z" fill="black" fill-opacity="0.07"/>
<path fill-rule="evenodd" clip-rule="evenodd" d="M35.5371 1.98633C36.6371 1.98633 37.5371 2.88633 37.5371 3.98633V21.9863C37.5371 23.0863 36.6371 23.9863 35.5371 23.9863H3.53711C2.43711 23.9863 1.53711 23.0863 1.53711 21.9863V3.98633C1.53711 2.88633 2.43711 1.98633 3.53711 1.98633H35.5371Z" fill="#3D95CE"/>
<path d="M25.2125 9.34623C25.2125 12.4102 22.6555 16.3912 20.5795 19.1862H15.8395L13.9375 7.55623L18.0885 7.15423L19.0935 15.4292C20.0335 13.8632 21.1925 11.4042 21.1925 9.72723C21.1925 8.80923 21.0385 8.18423 20.7985 7.66923L24.5785 6.88623C25.0155 7.62423 25.2125 8.38523 25.2125 9.34623Z" fill="white"/>
</g>
<defs>
<clipPath id="clip0_1_382">
<rect width="38" height="24" fill="white" transform="translate(0.537109 0.986328)"/>
</clipPath>
</defs>
</svg>
