<svg width="39" height="22" viewBox="0 0 39 22" fill="none" xmlns="http://www.w3.org/2000/svg">
<g clip-path="url(#clip0_1_378)">
<path opacity="0.07" d="M35.5371 0.986328H3.53711C1.83711 0.986328 0.537109 2.28633 0.537109 3.98633V21.9863C0.537109 23.6863 1.93711 24.9863 3.53711 24.9863H35.5371C37.2371 24.9863 38.5371 23.6863 38.5371 21.9863V3.98633C38.5371 2.28633 37.1371 0.986328 35.5371 0.986328Z" fill="#00333E"/>
<path d="M35.5371 1.98633C36.6371 1.98633 37.5371 2.88633 37.5371 3.98633V21.9863C37.5371 23.0863 36.6371 23.9863 35.5371 23.9863H3.53711C2.43711 23.9863 1.53711 23.0863 1.53711 21.9863V3.98633C1.53711 2.88633 2.43711 1.98633 3.53711 1.98633H35.5371Z" fill="white"/>
<path d="M28.8371 11.0863H28.5371C28.1371 12.0863 27.8371 12.5863 27.5371 14.0863H29.4371C29.1371 12.5863 29.1371 11.8863 28.8371 11.0863ZM31.7371 16.9863H30.0371C29.9371 16.9863 29.9371 16.9863 29.8371 16.8863L29.6371 15.9863L29.5371 15.7863H27.1371C27.0371 15.7863 26.9371 15.7863 26.9371 15.9863L26.6371 16.8863C26.6371 16.9863 26.5371 16.9863 26.5371 16.9863H24.4371L24.6371 16.4863L27.5371 9.68633C27.5371 9.18633 27.8371 8.98633 28.3371 8.98633H29.8371C29.9371 8.98633 30.0371 8.98633 30.0371 9.18633L31.4371 15.6863C31.5371 16.0863 31.6371 16.3863 31.6371 16.7863C31.7371 16.8863 31.7371 16.8863 31.7371 16.9863ZM18.3371 16.6863L18.7371 14.8863C18.8371 14.8863 18.9371 14.9863 18.9371 14.9863C19.6371 15.2863 20.3371 15.4863 21.0371 15.3863C21.2371 15.3863 21.5371 15.2863 21.7371 15.1863C22.2371 14.9863 22.2371 14.4863 21.8371 14.0863C21.6371 13.8863 21.3371 13.7863 21.0371 13.5863C20.6371 13.3863 20.2371 13.1863 19.9371 12.8863C18.7371 11.8863 19.1371 10.4863 19.8371 9.78633C20.4371 9.38633 20.7371 8.98633 21.5371 8.98633C22.7371 8.98633 24.0371 8.98633 24.6371 9.18633H24.7371C24.6371 9.78633 24.5371 10.2863 24.3371 10.8863C23.8371 10.6863 23.3371 10.4863 22.8371 10.4863C22.5371 10.4863 22.2371 10.4863 21.9371 10.5863C21.7371 10.5863 21.6371 10.6863 21.5371 10.7863C21.3371 10.9863 21.3371 11.2863 21.5371 11.4863L22.0371 11.8863C22.4371 12.0863 22.8371 12.2863 23.1371 12.4863C23.6371 12.7863 24.1371 13.2863 24.2371 13.8863C24.4371 14.7863 24.1371 15.5863 23.3371 16.1863C22.8371 16.5863 22.6371 16.7863 21.9371 16.7863C20.5371 16.7863 19.4371 16.8863 18.5371 16.5863C18.4371 16.7863 18.4371 16.7863 18.3371 16.6863ZM14.8371 16.9863C14.9371 16.2863 14.9371 16.2863 15.0371 15.9863C15.5371 13.7863 16.0371 11.4863 16.4371 9.28633C16.5371 9.08633 16.5371 8.98633 16.7371 8.98633H18.5371C18.3371 10.1863 18.1371 11.0863 17.8371 12.1863C17.5371 13.6863 17.2371 15.1863 16.8371 16.6863C16.8371 16.8863 16.7371 16.8863 16.5371 16.8863M5.53711 9.18633C5.53711 9.08633 5.73711 8.98633 5.83711 8.98633H9.23711C9.73711 8.98633 10.1371 9.28633 10.2371 9.78633L11.1371 14.1863C11.1371 14.2863 11.1371 14.2863 11.2371 14.3863C11.2371 14.2863 11.3371 14.2863 11.3371 14.2863L13.4371 9.18633C13.3371 9.08633 13.4371 8.98633 13.5371 8.98633H15.6371C15.6371 9.08633 15.6371 9.08633 15.5371 9.18633L12.4371 16.4863C12.3371 16.6863 12.3371 16.7863 12.2371 16.8863C12.1371 16.9863 11.9371 16.8863 11.7371 16.8863H10.2371C10.1371 16.8863 10.0371 16.8863 10.0371 16.6863L8.43711 10.4863C8.23711 10.2863 7.93711 9.98633 7.53711 9.88633C6.93711 9.58633 5.83711 9.38633 5.63711 9.38633L5.53711 9.18633Z" fill="#142688"/>
</g>
<defs>
<clipPath id="clip0_1_378">
<rect width="38" height="24" fill="white" transform="translate(0.537109 0.986328)"/>
</clipPath>
</defs>
</svg>
